<mxfile host="app.diagrams.net" modified="2024-08-12T07:41:01.134Z" agent="Mozilla/5.0 (Macintosh; Intel Mac OS X 10_15_7) AppleWebKit/537.36 (KHTML, like Gecko) Chrome/127.0.0.0 Safari/537.36" version="24.4.13" etag="QHesX78WcFdl3XkESggN" type="github">
  <diagram name="第 1 页" id="DS5hOFgtUya1Q_5RIbNS">
    <mxGraphModel>
      <root>
        <mxCell id="0" />
        <mxCell id="1" parent="0" />
      </root>
    </mxGraphModel>
  </diagram>
</mxfile>
